<?xml version="1.0" encoding="iso-8859-1"?>
<!-- Generator: Adobe Illustrator 19.0.0, SVG Export Plug-In . SVG Version: 6.00 Build 0)  -->
<svg version="1.1" id="Layer_1" xmlns="http://www.w3.org/2000/svg" xmlns:xlink="http://www.w3.org/1999/xlink" x="0px" y="0px"
	 viewBox="0 0 512.001 512.001" style="enable-background:new 0 0 512.001 512.001;" xml:space="preserve">
<g>
	<path style="fill:#F2962E;" d="M170.281,7.604v227.997l-98.355,40.74c-44.285,18.344-65.315,69.115-46.972,113.4
		c18.344,44.285,69.115,65.315,113.4,46.971l30.069-12.455c-2.816-36.432,17.748-72.12,53.338-86.863l98.355-40.74V68.659h23.749
		V7.604H170.281z"/>
	<path style="fill:#F2962E;" d="M320.117,68.659v227.997l-98.355,40.74c-44.285,18.344-65.315,69.115-46.972,113.4
		c18.344,44.285,69.115,65.315,113.4,46.971l151.408-62.715c4.293-1.747,8.424-3.81,12.342-6.193
		c9.55-5.778,17.654-13.227,24.128-21.784c0.16-0.211,0.326-0.418,0.486-0.631c0.529-0.713,1.035-1.44,1.541-2.168
		c0.327-0.467,0.661-0.931,0.978-1.406c0.32-0.481,0.625-0.972,0.935-1.459c0.477-0.743,0.952-1.485,1.406-2.244
		c0.136-0.228,0.263-0.461,0.397-0.69c5.427-9.254,9.207-19.591,10.891-30.624c0.703-4.535,1.028-9.144,0.999-13.782V68.659H320.117
		z"/>
</g>
<path style="fill:#249189;" d="M451.94,428.858c9.55-5.778,17.654-13.228,24.128-21.784c0.16-0.212,0.326-0.418,0.486-0.631
	c0.529-0.713,1.035-1.44,1.541-2.168c0.327-0.467,0.661-0.931,0.978-1.406c0.32-0.481,0.625-0.972,0.935-1.459
	c0.477-0.743,0.952-1.485,1.406-2.244c0.136-0.228,0.263-0.461,0.397-0.69c5.427-9.254,9.207-19.591,10.891-30.624
	c0.703-4.535,1.028-9.144,0.999-13.782v-55.41c-3.437-0.332-6.919-0.514-10.443-0.514c-59.315,0-107.399,48.084-107.399,107.399
	c0,18.318,4.598,35.559,12.684,50.651l51.054-21.147C443.892,433.304,448.023,431.241,451.94,428.858z"/>
<path style="fill:#7EC3C1;" d="M409.834,422.689l-5.819-14.051l21.207-8.783c2.503-1.019,4.852-2.196,7.021-3.516
	c5.235-3.167,9.776-7.273,13.512-12.211c0.121-0.16,0.251-0.33,0.404-0.527c0.185-0.254,0.365-0.516,0.556-0.791l1.461-2.188
	c0.172-0.269,0.346-0.535,0.51-0.804l0.297-0.516c3.162-5.393,5.218-11.177,6.146-17.251c0.384-2.484,0.571-5.086,0.554-7.746
	V331.19h15.208v23.068c0.021,3.422-0.225,6.837-0.731,10.104c-1.217,7.969-3.918,15.569-8.025,22.574l-0.408,0.706
	c-0.245,0.402-0.504,0.807-0.763,1.211l-1.754,2.627c-0.287,0.413-0.559,0.803-0.837,1.183l-0.479,0.626
	c-4.914,6.496-10.887,11.892-17.763,16.052c-2.845,1.73-5.922,3.274-9.132,4.582L409.834,422.689z"/>
<g>
	<path style="fill:#249189;" d="M320.117,296.655v-58.741c-50.095,6.191-89.497,46.876-93.712,97.558L320.117,296.655z"/>
	<path style="fill:#249189;" d="M24.955,389.74c18.344,44.285,69.115,65.315,113.4,46.971L71.927,276.34
		C27.641,294.684,6.611,345.455,24.955,389.74z"/>
	<path style="fill:#249189;" d="M221.762,337.395c-44.285,18.344-65.315,69.115-46.972,113.4
		c18.344,44.285,69.115,65.315,113.4,46.971L221.762,337.395z"/>
</g>
<path style="fill:#7A1B2E;" d="M351.47,61.055V0H162.677v230.52l-93.661,38.796c-23.295,9.649-41.439,27.792-51.087,51.087
	c-9.649,23.296-9.649,48.952,0,72.248c0.917,2.213,1.91,4.378,2.976,6.49c15.973,31.662,48.27,51.763,84.162,51.803
	c0.035,0,0.071,0.002,0.107,0.002c0.002,0,0.004,0,0.006,0c12.396,0,24.536-2.426,36.084-7.209l20.941-8.674
	c1.183,6.273,3.022,12.516,5.559,18.642c0.465,1.122,0.951,2.233,1.455,3.329c0.12,0.261,0.25,0.514,0.372,0.774
	c0.393,0.836,0.789,1.671,1.204,2.491c0.106,0.21,0.221,0.414,0.329,0.623c0.448,0.87,0.902,1.735,1.375,2.586
	c0.05,0.089,0.102,0.174,0.152,0.264c16.561,29.617,47.795,48.226,82.359,48.228c0.002,0,0.004,0,0.007,0
	c0.561,0,1.117-0.031,1.677-0.042c0.453-0.008,0.906-0.019,1.361-0.033c1.024-0.032,2.045-0.081,3.065-0.147
	c0.561-0.037,1.12-0.078,1.681-0.124c0.93-0.077,1.856-0.166,2.782-0.272c0.653-0.074,1.307-0.155,1.96-0.242
	c0.82-0.111,1.637-0.23,2.454-0.362c0.785-0.127,1.568-0.263,2.352-0.41c0.662-0.125,1.322-0.255,1.981-0.394
	c0.961-0.202,1.921-0.417,2.88-0.65c0.457-0.112,0.912-0.227,1.369-0.346c1.158-0.3,2.315-0.617,3.467-0.963
	c0.238-0.072,0.474-0.147,0.713-0.221c1.311-0.405,2.62-0.834,3.924-1.3c0.075-0.026,0.149-0.056,0.224-0.083
	c1.403-0.506,2.802-1.043,4.195-1.62l7.025-2.91l0,0l144.339-59.787c4.702-1.914,9.219-4.181,13.411-6.73
	c10.186-6.163,19.02-14.137,26.254-23.699l0.151-0.195c0.026-0.033,0.053-0.069,0.078-0.102c0.099-0.128,0.198-0.256,0.299-0.391
	c0.404-0.544,0.787-1.097,1.172-1.648c0.163-0.233,0.336-0.465,0.497-0.698l0.275-0.39c0.266-0.377,0.531-0.754,0.798-1.154
	c0.26-0.389,0.51-0.784,0.76-1.179l0.139-0.219l0.111-0.174c0.388-0.606,0.77-1.22,1.15-1.836c0.127-0.205,0.259-0.404,0.382-0.611
	c0.111-0.186,0.217-0.372,0.323-0.56l0.106-0.188c6.065-10.342,10.051-21.554,11.846-33.306c0.754-4.87,1.12-9.914,1.089-14.946
	v-62.315V61.055H351.47z M31.98,326.223c0.478-1.154,0.984-2.289,1.512-3.413c0.171-0.365,0.356-0.722,0.533-1.084
	c0.367-0.752,0.737-1.503,1.126-2.24c0.221-0.421,0.454-0.833,0.682-1.249c0.367-0.667,0.738-1.331,1.123-1.985
	c0.251-0.428,0.51-0.852,0.77-1.274c0.387-0.631,0.782-1.256,1.185-1.874c0.271-0.416,0.544-0.829,0.822-1.239
	c0.421-0.619,0.853-1.229,1.291-1.835c0.279-0.386,0.556-0.775,0.842-1.156c0.479-0.638,0.971-1.261,1.468-1.883
	c0.264-0.33,0.52-0.664,0.788-0.989c0.643-0.779,1.305-1.541,1.977-2.293c0.136-0.152,0.265-0.31,0.401-0.461
	c0.816-0.899,1.654-1.777,2.51-2.637c0.243-0.244,0.497-0.477,0.743-0.718c0.62-0.607,1.246-1.211,1.887-1.797
	c0.334-0.305,0.676-0.6,1.016-0.899c0.573-0.506,1.149-1.008,1.737-1.497c0.374-0.311,0.753-0.614,1.133-0.919
	c0.575-0.46,1.155-0.915,1.743-1.36c0.395-0.299,0.793-0.594,1.194-0.886c0.599-0.435,1.205-0.86,1.818-1.278
	c0.401-0.275,0.802-0.551,1.209-0.818c0.65-0.427,1.311-0.839,1.975-1.249c0.381-0.235,0.758-0.475,1.145-0.705
	c0.789-0.467,1.592-0.916,2.4-1.358c0.273-0.149,0.538-0.307,0.813-0.453c0.043-0.022,0.086-0.043,0.129-0.065l60.331,145.65
	c-0.036,0.011-0.072,0.024-0.108,0.035c-0.164,0.05-0.33,0.093-0.494,0.142c-0.96,0.287-1.924,0.555-2.893,0.804
	c-0.351,0.09-0.703,0.175-1.054,0.261c-0.835,0.203-1.674,0.392-2.514,0.568c-0.325,0.068-0.651,0.14-0.978,0.204
	c-1.143,0.223-2.287,0.428-3.438,0.599c-0.085,0.012-0.171,0.021-0.257,0.033c-1.068,0.156-2.139,0.286-3.214,0.397
	c-0.346,0.036-0.692,0.066-1.039,0.097c-0.859,0.078-1.72,0.141-2.581,0.191c-0.342,0.019-0.682,0.043-1.024,0.057
	c-1.168,0.052-2.338,0.086-3.512,0.086c-31.1-0.003-58.993-17.959-71.924-46.01c-0.44-0.955-0.865-1.919-1.27-2.897
	C23.885,367.29,23.885,345.764,31.98,326.223z M142.47,426.777L81.862,280.455l96.024-39.774V15.208h13.722v21.913h15.208V15.208
	h13.724v21.913h15.208V15.208h13.724v21.913h15.208V15.208h13.724v21.913h15.208V15.208h13.724v21.913h15.208V15.208h13.724v45.847
	h-23.752V231.42c-48.928,9.02-87.015,49.235-93.194,98.757l-0.466,0.194c-1.002,0.415-1.988,0.851-2.969,1.296
	c-0.252,0.115-0.505,0.231-0.756,0.348c-0.934,0.434-1.86,0.878-2.773,1.339c-0.109,0.055-0.217,0.112-0.325,0.167
	c-0.842,0.429-1.672,0.872-2.495,1.323c-0.325,0.178-0.649,0.358-0.971,0.539c-0.17,0.095-0.343,0.188-0.512,0.284
	c-0.487,0.278-0.965,0.565-1.445,0.851c-0.534,0.317-1.063,0.643-1.59,0.97c-0.339,0.211-0.681,0.419-1.017,0.634
	c-0.107,0.069-0.212,0.141-0.318,0.21c-0.506,0.326-1.009,0.658-1.508,0.994c-0.179,0.121-0.357,0.245-0.535,0.367
	c-26,17.744-41.672,47.483-41.063,79.587L142.47,426.777z M235.896,323.31c8.261-37.994,38.382-68.236,76.618-76.412v44.675
	L235.896,323.31z M274.885,445.774l-14.05,5.82l17.282,41.723c-0.001,0-0.002,0.001-0.003,0.001
	c-7.22,2.211-14.562,3.333-21.832,3.443c-0.004,0-0.008,0-0.011,0c-27.854,0.421-54.639-13.979-69.313-38.624
	c-0.066-0.112-0.129-0.226-0.195-0.338c-0.508-0.864-1-1.741-1.478-2.63c-0.156-0.29-0.309-0.582-0.462-0.875
	c-0.396-0.758-0.78-1.526-1.153-2.301c-0.146-0.303-0.295-0.604-0.438-0.909c-0.491-1.052-0.967-2.116-1.415-3.2
	c-0.508-1.226-0.979-2.457-1.42-3.692c-0.145-0.406-0.268-0.813-0.406-1.22c-0.283-0.832-0.566-1.666-0.819-2.501
	c-0.148-0.488-0.273-0.977-0.411-1.465c-0.214-0.758-0.43-1.517-0.62-2.277c-0.131-0.523-0.241-1.048-0.361-1.573
	c-0.166-0.729-0.334-1.457-0.479-2.187c-0.107-0.541-0.198-1.085-0.294-1.626c-0.126-0.715-0.251-1.429-0.358-2.143
	c-0.082-0.552-0.149-1.103-0.219-1.655c-0.089-0.708-0.176-1.414-0.246-2.122c-0.055-0.556-0.098-1.111-0.142-1.667
	c-0.055-0.704-0.103-1.406-0.139-2.109c-0.028-0.557-0.048-1.112-0.064-1.669c-0.02-0.701-0.032-1.401-0.034-2.101
	c-0.001-0.555,0.003-1.107,0.013-1.661c0.013-0.701,0.036-1.4,0.068-2.099c0.024-0.548,0.053-1.097,0.089-1.643
	c0.047-0.702,0.105-1.4,0.171-2.1c0.051-0.539,0.1-1.079,0.162-1.616c0.08-0.706,0.176-1.408,0.275-2.111
	c0.074-0.525,0.146-1.05,0.23-1.574c0.116-0.716,0.249-1.428,0.384-2.138c0.095-0.504,0.187-1.009,0.291-1.511
	c0.154-0.732,0.327-1.458,0.502-2.185c0.114-0.474,0.219-0.951,0.342-1.423c0.2-0.768,0.422-1.531,0.644-2.293
	c0.123-0.422,0.235-0.846,0.365-1.265c0.267-0.862,0.559-1.715,0.855-2.567c0.108-0.312,0.205-0.629,0.317-0.94
	c0.84-2.331,1.789-4.622,2.844-6.865c0.136-0.289,0.286-0.571,0.425-0.858c0.398-0.821,0.8-1.641,1.226-2.448
	c0.204-0.385,0.423-0.762,0.633-1.145c0.383-0.7,0.768-1.398,1.172-2.087c0.245-0.417,0.505-0.824,0.757-1.236
	c0.393-0.641,0.786-1.282,1.197-1.911c0.278-0.426,0.57-0.844,0.856-1.264c0.41-0.602,0.82-1.202,1.247-1.794
	c0.307-0.426,0.626-0.845,0.942-1.264c0.43-0.571,0.862-1.14,1.307-1.699c0.335-0.42,0.677-0.833,1.02-1.247
	c0.451-0.543,0.906-1.084,1.373-1.615c0.359-0.41,0.725-0.814,1.093-1.218c0.473-0.518,0.953-1.031,1.441-1.537
	c0.383-0.397,0.771-0.791,1.162-1.18c0.497-0.495,1.002-0.981,1.513-1.464c0.404-0.381,0.81-0.759,1.223-1.132
	c0.522-0.472,1.054-0.935,1.591-1.394c0.423-0.362,0.846-0.723,1.276-1.077c0.55-0.451,1.111-0.89,1.675-1.327
	c0.44-0.341,0.878-0.683,1.325-1.015c0.58-0.43,1.173-0.846,1.766-1.261c0.452-0.316,0.9-0.637,1.361-0.945
	c0.615-0.412,1.246-0.806,1.876-1.202c0.452-0.284,0.898-0.574,1.358-0.85c0.023-0.014,0.047-0.027,0.069-0.041
	c0.648-0.388,1.312-0.757,1.974-1.128c0.332-0.186,0.659-0.377,0.994-0.559c0.195-0.105,0.389-0.21,0.585-0.313l35.282,85.179
	l14.05-5.82l-35.426-85.525l96.024-39.774v-72.424V76.263h13.724v21.913h15.208V76.263h13.724v21.913h15.208V76.263h13.724v21.913
	h15.208V76.263h13.723v21.913h15.208V76.263h13.724v21.913h15.208V76.263h13.722v214.32c-0.953-0.024-1.9-0.037-2.839-0.037
	c-63.413,0-115.003,51.59-115.003,115.004c0,16.095,3.419,32.081,9.92,46.715l-85.869,35.568L274.885,445.774z M447.99,422.361
	c-3.516,2.137-7.304,4.037-11.301,5.665l-44.47,18.419c-5.742-12.791-8.755-26.797-8.755-40.897
	c0-55.027,44.768-99.796,99.795-99.796c0.937,0,1.884,0.014,2.839,0.043v48.324c0.013,2.137-0.057,4.263-0.209,6.365
	c-0.152,2.102-0.387,4.18-0.704,6.223c-0.216,1.412-0.48,2.812-0.771,4.204c-1.484,7.11-3.937,13.959-7.344,20.447
	c-0.581,1.105-1.189,2.2-1.824,3.284l-0.356,0.621c-0.414,0.69-0.848,1.366-1.292,2.057l-0.293,0.462
	c-0.08,0.128-0.16,0.248-0.24,0.374c-0.103,0.161-0.207,0.327-0.309,0.481c-0.1,0.151-0.206,0.298-0.31,0.447
	c-0.092,0.132-0.181,0.264-0.274,0.394l-0.172,0.246l-0.146,0.208c-0.293,0.421-0.59,0.833-0.886,1.248
	c-0.171,0.24-0.339,0.487-0.514,0.723l-0.448,0.582C463.937,410.507,456.535,417.191,447.99,422.361z"/>
<rect x="455.681" y="133.323" style="fill:#FFC88F;" width="15.208" height="122.677"/>
<g>
</g>
<g>
</g>
<g>
</g>
<g>
</g>
<g>
</g>
<g>
</g>
<g>
</g>
<g>
</g>
<g>
</g>
<g>
</g>
<g>
</g>
<g>
</g>
<g>
</g>
<g>
</g>
<g>
</g>
</svg>
