<?xml version="1.0" encoding="iso-8859-1"?>
<!-- Generator: Adobe Illustrator 19.0.0, SVG Export Plug-In . SVG Version: 6.00 Build 0)  -->
<svg version="1.1" id="Layer_1" xmlns="http://www.w3.org/2000/svg" xmlns:xlink="http://www.w3.org/1999/xlink" x="0px" y="0px"
	 viewBox="0 0 512.001 512.001" style="enable-background:new 0 0 512.001 512.001;" xml:space="preserve">
<g>
	<path style="fill:#2BA5F7;" d="M390.192,477.434c-0.071,0.094-0.153,0.189-0.224,0.283c-13.097,16.869-32.513,25.44-51.999,25.44
		c-11.859,0-23.754-3.171-34.246-9.596c0.071-4.609,0.53-9.278,1.415-13.958c2.134-11.423,6.507-21.856,12.578-30.945
		c17.341-26.017,48.58-40.989,81.152-36.368C407.628,433.557,404.775,458.454,390.192,477.434z"/>
	<polygon style="fill:#2BA5F7;" points="270.645,97.985 123.383,97.985 117.748,8.84 268.111,8.84 	"/>
</g>
<g>
	<polygon style="fill:#2197D8;" points="176.302,8.84 180.993,97.985 123.383,97.985 117.748,8.84 	"/>
	<path style="fill:#2197D8;" d="M389.968,477.717c-13.097,16.869-32.513,25.44-51.999,25.44c-11.859,0-23.754-3.171-34.246-9.596
		c0.071-4.609,0.53-9.278,1.415-13.958c2.134-11.423,6.507-21.856,12.578-30.945l0.283,0.354
		C318,449.012,346.61,494.103,389.968,477.717z"/>
</g>
<path style="fill:#F7B239;" d="M398.869,412.29c-32.725-4.645-64.094,10.492-81.388,36.721
	c-5.953,9.006-10.232,19.321-12.343,30.591c-0.884,4.68-1.344,9.348-1.415,13.958c-5.163-3.136-9.985-7.073-14.311-11.8
	l-96.737-105.755l-3.537-1.25c6.908-12.472,10.845-26.819,10.845-42.085c0-14.028-3.313-27.279-9.207-39.008
	c-11.576-23.07-33.102-40.27-58.954-45.987l0.908-2.051l-9.337-147.639h147.25l3.713,130.44c0.483,16.999,6.46,33.385,17.034,46.694
	l97.762,120.797C393.246,400.973,396.487,406.502,398.869,412.29z"/>
<g>
	<path style="fill:#E09B2D;" d="M180.486,97.985l10.291,195.678c-11.576-23.07-33.102-40.27-58.954-45.987l0.908-2.051
		l-9.336-147.639C123.395,97.985,180.486,97.985,180.486,97.985z"/>
	<path style="fill:#E09B2D;" d="M317.481,449.012c-5.953,9.006-10.232,19.321-12.343,30.591c-0.884,4.68-1.344,9.348-1.415,13.958
		c-5.163-3.136-9.985-7.073-14.311-11.8l-96.737-105.755l-3.537-1.25c6.908-12.472,10.845-26.819,10.845-42.085
		c0-14.028-3.313-27.279-9.207-39.008L317.481,449.012z"/>
</g>
<path style="fill:#2197D8;" d="M199.985,332.671c0,15.266-3.937,29.613-10.845,42.085L140.83,357.71
	c-26.984-9.525-40.116-40.034-28.493-66.193l19.475-43.841h0.012C170.82,256.305,199.985,291.069,199.985,332.671z"/>
<g>
	<path style="fill:#FFFFFF;" d="M296.299,336.863c-2.578,0-5.132-1.121-6.879-3.28l-28.022-34.626
		c-15.627-19.67-24.624-44.331-25.337-69.445l-2.083-73.141c-0.139-4.88,3.705-8.951,8.587-9.089c4.88-0.13,8.95,3.706,9.089,8.587
		l2.083,73.142c0.605,21.318,8.241,42.251,21.502,58.943l0.104,0.128l27.823,34.378c3.071,3.796,2.485,9.362-1.31,12.435
		C300.219,336.218,298.251,336.863,296.299,336.863z"/>
	<circle style="fill:#FFFFFF;" cx="242.149" cy="128.919" r="8.841"/>
</g>
<path style="fill:#333333;" d="M396.032,390.354l-97.741-120.766c-9.312-11.733-14.673-26.438-15.1-41.412L276.953,8.59
	C276.818,3.807,272.9,0,268.115,0H117.744c-2.441,0-4.774,1.01-6.446,2.79c-1.67,1.78-2.531,4.173-2.378,6.61l14.849,234.615
	l-19.517,43.913c-6.539,14.712-6.637,31.63-0.269,46.416c6.367,14.786,18.726,26.34,33.908,31.698l49.753,17.56l95.249,104.127
	c14.21,15.533,34.125,24.273,55.065,24.271c1.076,0,2.156-0.024,3.237-0.07c22.114-0.95,42.528-11.563,56.012-29.115
	C418.326,455.322,417.842,417.301,396.032,390.354z M261.551,89.147h-17.855V17.683h15.825L261.551,89.147z M166.492,89.147
	l-4.35-71.464h24.53v71.464H166.492z M204.355,17.683h21.659v71.464h-21.659V17.683z M144.425,17.683l4.35,71.464h-17.09
	l-4.522-71.464H144.425z M120.225,327.349c-4.488-10.422-4.422-21.871,0.186-32.24l16.407-36.916
	c14.349,4.61,27.248,13.379,36.846,25.187c11.273,13.868,17.481,31.372,17.481,49.285c0,10.774-2.214,21.369-6.457,31.141
	l-40.913-14.44C133.077,345.591,124.713,337.772,120.225,327.349z M200.591,371.554c5.407-12.182,8.239-25.422,8.239-38.888
	c0-21.964-7.615-43.429-21.442-60.44c-11.964-14.718-28.119-25.594-46.085-31.168l-8.495-134.23h129.249l3.462,121.848
	c0.534,18.785,7.268,37.233,18.958,51.945c0.018,0.021,0.033,0.041,0.05,0.061l97.763,120.793c0.328,0.404,0.638,0.818,0.953,1.23
	c-41.757,1.694-77.933,31.593-86.504,73.907c-0.263-0.276-0.535-0.539-0.793-0.82L200.591,371.554z M383.184,472.044
	c-10.29,13.396-25.87,21.495-42.746,22.22c-9.674,0.417-19.129-1.63-27.59-5.793c0.213-2.431,0.53-4.853,0.98-7.243
	c7.055-37.655,41.048-63.456,78.651-60.713C397.83,437.764,394.758,456.976,383.184,472.044z"/>
<g>
</g>
<g>
</g>
<g>
</g>
<g>
</g>
<g>
</g>
<g>
</g>
<g>
</g>
<g>
</g>
<g>
</g>
<g>
</g>
<g>
</g>
<g>
</g>
<g>
</g>
<g>
</g>
<g>
</g>
</svg>
